<svg xmlns="http://www.w3.org/2000/svg" version="1.1" xmlns:xlink="http://www.w3.org/1999/xlink" xmlns:svgjs="http://svgjs.dev/svgjs" width="1500" height="340" viewBox="0 0 1500 340"><g transform="matrix(1,0,0,1,-0.9090909090909918,0.05401711949758692)"><svg viewBox="0 0 396 90" data-background-color="#112423" preserveAspectRatio="xMidYMid meet" height="340" width="1500" xmlns="http://www.w3.org/2000/svg" xmlns:xlink="http://www.w3.org/1999/xlink"><g id="tight-bounds" transform="matrix(1,0,0,1,0.2400000000000091,-0.0009293892106825297)"><svg viewBox="0 0 395.52 90.00185877842137" height="90.00185877842137" width="395.52"><g><svg viewBox="0 0 537.0592922743057 122.20958378567704" height="90.00185877842137" width="395.52"><g transform="matrix(1,0,0,1,141.53929227430564,20.165203606378675)"><svg viewBox="0 0 395.52000000000004 81.87917657291969" height="81.87917657291969" width="395.52000000000004"><g id="textblocktransform"><svg viewBox="0 0 395.52000000000004 81.87917657291969" height="81.87917657291969" width="395.52000000000004" id="textblock"><g><svg viewBox="0 0 395.52000000000004 81.87917657291969" height="81.87917657291969" width="395.52000000000004"><g transform="matrix(1,0,0,1,0,0)"><svg width="395.52000000000004" viewBox="3.3 -35 172.44 35.7" height="81.87917657291969" data-palette-color="#ffffff"><path d="M9.9 0L3.3 0 3.3-35 25.3-35 25.3-29 9.9-29 9.9-20.55 24.1-20.55 24.1-14.55 9.9-14.55 9.9 0ZM39.65 0.4L39.65 0.4Q36.75 0.4 34.57-0.93 32.4-2.25 31.2-4.6 30-6.95 30-10L30-10 30-24.8 36.3-24.8 36.3-10.5Q36.3-7.7 37.67-6.3 39.05-4.9 41.6-4.9L41.6-4.9Q44.5-4.9 46.1-6.83 47.7-8.75 47.7-12.2L47.7-12.2 47.7-24.8 54-24.8 54 0 47.8 0 47.8-3.25 46.9-3.25Q46.3-2 44.65-0.8 43 0.4 39.65 0.4ZM67.3 0L61 0 61-24.8 67.2-24.8 67.2-21.55 68.09-21.55Q68.7-22.85 70.34-24.03 72-25.2 75.34-25.2L75.34-25.2Q78.25-25.2 80.42-23.88 82.59-22.55 83.8-20.23 85-17.9 85-14.8L85-14.8 85 0 78.7 0 78.7-14.3Q78.7-17.1 77.32-18.5 75.95-19.9 73.4-19.9L73.4-19.9Q70.5-19.9 68.9-17.98 67.3-16.05 67.3-12.6L67.3-12.6 67.3 0ZM101.79 0.7L101.79 0.7Q98.84 0.7 96.27-0.78 93.69-2.25 92.14-5.1 90.59-7.95 90.59-12L90.59-12 90.59-12.8Q90.59-16.85 92.14-19.7 93.69-22.55 96.24-24.03 98.79-25.5 101.79-25.5L101.79-25.5Q104.04-25.5 105.57-24.98 107.09-24.45 108.04-23.65 108.99-22.85 109.49-21.95L109.49-21.95 110.39-21.95 110.39-35 116.69-35 116.69 0 110.49 0 110.49-3 109.59-3Q108.74-1.6 106.97-0.45 105.19 0.7 101.79 0.7ZM103.69-4.8L103.69-4.8Q106.59-4.8 108.54-6.68 110.49-8.55 110.49-12.15L110.49-12.15 110.49-12.65Q110.49-16.25 108.57-18.13 106.64-20 103.69-20L103.69-20Q100.79-20 98.84-18.13 96.89-16.25 96.89-12.65L96.89-12.65 96.89-12.15Q96.89-8.55 98.84-6.68 100.79-4.8 103.69-4.8ZM134.99 0.7L134.99 0.7Q131.29 0.7 128.47-0.88 125.64-2.45 124.07-5.33 122.49-8.2 122.49-12.1L122.49-12.1 122.49-12.7Q122.49-16.6 124.04-19.48 125.59-22.35 128.39-23.93 131.19-25.5 134.89-25.5L134.89-25.5Q138.54-25.5 141.24-23.88 143.94-22.25 145.44-19.38 146.94-16.5 146.94-12.7L146.94-12.7 146.94-10.55 128.89-10.55Q128.99-8 130.79-6.4 132.59-4.8 135.19-4.8L135.19-4.8Q137.84-4.8 139.09-5.95 140.34-7.1 140.99-8.5L140.99-8.5 146.14-5.8Q145.44-4.5 144.12-2.98 142.79-1.45 140.59-0.38 138.39 0.7 134.99 0.7ZM128.94-15.25L128.94-15.25 140.54-15.25Q140.34-17.4 138.81-18.7 137.29-20 134.84-20L134.84-20Q132.29-20 130.79-18.7 129.29-17.4 128.94-15.25ZM156.14 0L148.74 0 157.74-12.5 148.84-24.8 156.14-24.8 161.79-16.55 162.69-16.55 168.34-24.8 175.64-24.8 166.74-12.5 175.74 0 168.34 0 162.69-8.35 161.79-8.35 156.14 0Z" opacity="1" transform="matrix(1,0,0,1,0,0)" fill="#ffffff" class="wordmark-text-0" data-fill-palette-color="primary" id="text-0"></path></svg></g></svg></g></svg></g></svg></g><g><svg viewBox="0 0 122.20958378567704 122.20958378567704" height="122.20958378567704" width="122.20958378567704"><g><svg xmlns="http://www.w3.org/2000/svg" viewBox="7 7 18 18" x="0" y="0" height="122.20958378567704" width="122.20958378567704" class="icon-icon-0" data-fill-palette-color="accent" id="icon-0"><g fill="#ffedad" data-fill-palette-color="accent"><path d="M24 15H18.41L22.36 11.05A1 1 0 1 0 21 9.64L17 13.59V8A1 1 0 0 0 15 8V13.59L11.05 9.64A1 1 0 0 0 9.64 11.05L13.59 15H8A1 1 0 0 0 8 17H13.59L9.64 21A1 1 0 0 0 9.64 22.41 1 1 0 0 0 10.34 22.71 1 1 0 0 0 11.05 22.41L15 18.41V24A1 1 0 0 0 17 24V18.41L21 22.36A1 1 0 0 0 21.71 22.66 1 1 0 0 0 22.41 22.36 1 1 0 0 0 22.41 20.95L18.41 17H24A1 1 0 0 0 24 15" fill="#ffedad" data-fill-palette-color="accent"></path></g></svg></g></svg></g></svg></g><defs></defs></svg><rect width="395.52" height="90.00185877842137" fill="none" stroke="none" visibility="hidden"></rect></g></svg></g></svg>